<?xml version="1.0" encoding="UTF-8" standalone="no"?>
<!DOCTYPE svg PUBLIC "-//W3C//DTD SVG 1.1//EN" "http://www.w3.org/Graphics/SVG/1.1/DTD/svg11.dtd">
<svg width="100%" height="100%" viewBox="0 0 1428 284" version="1.1" xmlns="http://www.w3.org/2000/svg" xmlns:xlink="http://www.w3.org/1999/xlink" xml:space="preserve" xmlns:serif="http://www.serif.com/" style="fill-rule:evenodd;clip-rule:evenodd;stroke-linejoin:round;stroke-miterlimit:2;">
    <g transform="matrix(1,0,0,1,-240.509,-374.727)">
        <g transform="matrix(300,0,0,300,240.497,604.191)">
            <path d="M0.507,-0.493C0.493,-0.493 0.478,-0.492 0.464,-0.491C0.45,-0.49 0.436,-0.488 0.423,-0.486C0.389,-0.479 0.358,-0.463 0.33,-0.437C0.302,-0.412 0.292,-0.38 0.299,-0.342C0.303,-0.325 0.311,-0.312 0.324,-0.302C0.344,-0.286 0.371,-0.278 0.404,-0.279C0.438,-0.28 0.467,-0.283 0.491,-0.289C0.505,-0.293 0.518,-0.292 0.531,-0.287C0.543,-0.281 0.554,-0.271 0.564,-0.256C0.579,-0.233 0.59,-0.202 0.595,-0.163C0.601,-0.124 0.599,-0.091 0.589,-0.066C0.581,-0.045 0.568,-0.033 0.552,-0.029C0.498,-0.009 0.44,0 0.375,-0C0.311,-0.001 0.254,-0.013 0.203,-0.036C0.134,-0.067 0.082,-0.112 0.045,-0.172C0.009,-0.233 -0.006,-0.301 0.002,-0.378C0.015,-0.5 0.063,-0.596 0.147,-0.665C0.231,-0.733 0.335,-0.761 0.46,-0.748C0.481,-0.745 0.5,-0.734 0.516,-0.715C0.531,-0.695 0.544,-0.661 0.554,-0.613C0.565,-0.564 0.559,-0.529 0.536,-0.506C0.528,-0.498 0.518,-0.493 0.507,-0.493Z" style="fill-rule:nonzero;"/>
        </g>
        <g transform="matrix(300,0,0,300,430.634,604.191)">
            <path d="M0.747,-0.321C0.73,-0.218 0.68,-0.136 0.597,-0.073C0.515,-0.01 0.419,0.012 0.31,-0.006C0.204,-0.023 0.121,-0.074 0.061,-0.157C0,-0.24 -0.022,-0.332 -0.006,-0.433C0.009,-0.526 0.055,-0.605 0.13,-0.669C0.205,-0.732 0.293,-0.76 0.393,-0.751C0.514,-0.741 0.607,-0.695 0.674,-0.614C0.741,-0.533 0.765,-0.435 0.747,-0.321ZM0.466,-0.362C0.471,-0.39 0.466,-0.414 0.45,-0.434C0.435,-0.454 0.413,-0.466 0.384,-0.471C0.357,-0.475 0.333,-0.469 0.312,-0.453C0.291,-0.436 0.279,-0.416 0.275,-0.391C0.27,-0.36 0.278,-0.334 0.3,-0.31C0.322,-0.287 0.35,-0.277 0.382,-0.281C0.405,-0.284 0.424,-0.292 0.438,-0.308C0.453,-0.323 0.463,-0.341 0.466,-0.362Z" style="fill-rule:nonzero;"/>
        </g>
        <g transform="matrix(300,0,0,300,670.868,604.191)">
            <path d="M0.298,-0.72C0.299,-0.705 0.301,-0.676 0.302,-0.635C0.302,-0.593 0.303,-0.55 0.304,-0.505C0.304,-0.46 0.305,-0.419 0.306,-0.383C0.307,-0.347 0.308,-0.326 0.31,-0.322C0.312,-0.314 0.323,-0.31 0.342,-0.309C0.361,-0.309 0.383,-0.309 0.407,-0.31C0.431,-0.311 0.454,-0.313 0.476,-0.314C0.498,-0.316 0.513,-0.315 0.521,-0.313C0.533,-0.309 0.543,-0.292 0.55,-0.261C0.557,-0.231 0.562,-0.199 0.564,-0.164C0.566,-0.129 0.565,-0.097 0.562,-0.067C0.558,-0.038 0.55,-0.022 0.539,-0.019C0.522,-0.015 0.489,-0.011 0.44,-0.007C0.39,-0.003 0.338,-0.001 0.282,-0C0.227,0 0.176,-0.001 0.128,-0.005C0.081,-0.009 0.052,-0.017 0.041,-0.029C0.03,-0.041 0.021,-0.078 0.015,-0.143C0.009,-0.207 0.005,-0.277 0.003,-0.354C0.001,-0.431 0,-0.504 0.001,-0.573C0.001,-0.643 0.003,-0.688 0.005,-0.711C0.007,-0.724 0.022,-0.734 0.053,-0.74C0.083,-0.746 0.116,-0.75 0.152,-0.75C0.188,-0.75 0.221,-0.747 0.251,-0.742C0.281,-0.737 0.297,-0.73 0.298,-0.72Z" style="fill-rule:nonzero;"/>
        </g>
        <g transform="matrix(300,0,0,300,849.579,604.191)">
            <path d="M0.747,-0.321C0.73,-0.218 0.68,-0.136 0.597,-0.073C0.515,-0.01 0.419,0.012 0.31,-0.006C0.204,-0.023 0.121,-0.074 0.061,-0.157C0,-0.24 -0.022,-0.332 -0.006,-0.433C0.009,-0.526 0.055,-0.605 0.13,-0.669C0.205,-0.732 0.293,-0.76 0.393,-0.751C0.514,-0.741 0.607,-0.695 0.674,-0.614C0.741,-0.533 0.765,-0.435 0.747,-0.321ZM0.466,-0.362C0.471,-0.39 0.466,-0.414 0.45,-0.434C0.435,-0.454 0.413,-0.466 0.384,-0.471C0.357,-0.475 0.333,-0.469 0.312,-0.453C0.291,-0.436 0.279,-0.416 0.275,-0.391C0.27,-0.36 0.278,-0.334 0.3,-0.31C0.322,-0.287 0.35,-0.277 0.382,-0.281C0.405,-0.284 0.424,-0.292 0.438,-0.308C0.453,-0.323 0.463,-0.341 0.466,-0.362Z" style="fill-rule:nonzero;"/>
        </g>
        <g transform="matrix(300,0,0,300,1089.81,604.191)">
            <path d="M0.525,-0.313C0.559,-0.286 0.588,-0.259 0.613,-0.233C0.638,-0.207 0.651,-0.187 0.651,-0.174C0.651,-0.165 0.646,-0.151 0.635,-0.132C0.624,-0.114 0.612,-0.095 0.598,-0.077C0.584,-0.058 0.57,-0.042 0.557,-0.028C0.544,-0.014 0.535,-0.007 0.53,-0.007C0.509,-0.003 0.478,-0.014 0.438,-0.04C0.397,-0.066 0.365,-0.083 0.34,-0.092C0.316,-0.099 0.303,-0.096 0.301,-0.083C0.301,-0.059 0.299,-0.041 0.294,-0.029C0.29,-0.016 0.274,-0.009 0.247,-0.006C0.215,-0.003 0.18,-0.001 0.139,-0C0.099,-0 0.074,-0.001 0.063,-0.003C0.056,-0.005 0.049,-0.009 0.045,-0.016C0.038,-0.025 0.031,-0.065 0.024,-0.137C0.016,-0.209 0.011,-0.287 0.006,-0.371C0.002,-0.455 0,-0.532 0.001,-0.603C0.001,-0.673 0.006,-0.711 0.016,-0.716C0.052,-0.736 0.099,-0.75 0.159,-0.759C0.218,-0.768 0.278,-0.767 0.337,-0.755C0.396,-0.743 0.449,-0.718 0.495,-0.681C0.542,-0.644 0.571,-0.59 0.581,-0.519C0.594,-0.424 0.576,-0.355 0.525,-0.313ZM0.28,-0.406C0.305,-0.409 0.324,-0.418 0.337,-0.434C0.351,-0.449 0.358,-0.465 0.358,-0.482C0.358,-0.499 0.35,-0.514 0.334,-0.526C0.319,-0.539 0.295,-0.543 0.262,-0.54C0.236,-0.537 0.225,-0.513 0.231,-0.469C0.236,-0.424 0.253,-0.403 0.28,-0.406Z" style="fill-rule:nonzero;"/>
        </g>
        <g transform="matrix(300,0,0,300,1294.75,604.191)">
            <path d="M0.016,-0.013C0.005,-0.019 -0.001,-0.047 0,-0.096C0.001,-0.145 0.003,-0.175 0.005,-0.186C0.024,-0.262 0.057,-0.319 0.107,-0.358C0.156,-0.396 0.215,-0.428 0.282,-0.455C0.31,-0.466 0.322,-0.477 0.32,-0.489C0.318,-0.5 0.31,-0.509 0.296,-0.515C0.283,-0.521 0.268,-0.522 0.252,-0.518C0.236,-0.514 0.227,-0.503 0.227,-0.484C0.226,-0.477 0.223,-0.471 0.219,-0.465C0.21,-0.456 0.193,-0.451 0.169,-0.451C0.144,-0.451 0.121,-0.454 0.097,-0.459C0.081,-0.462 0.066,-0.466 0.052,-0.472C0.039,-0.477 0.026,-0.486 0.016,-0.499C0.003,-0.513 0.006,-0.539 0.024,-0.577C0.042,-0.615 0.059,-0.641 0.073,-0.657C0.12,-0.705 0.177,-0.734 0.244,-0.744C0.311,-0.753 0.374,-0.743 0.431,-0.712C0.486,-0.683 0.526,-0.635 0.553,-0.569C0.579,-0.503 0.576,-0.441 0.544,-0.384C0.516,-0.335 0.476,-0.302 0.424,-0.286C0.371,-0.27 0.332,-0.249 0.306,-0.222C0.347,-0.223 0.388,-0.224 0.43,-0.226C0.471,-0.228 0.498,-0.228 0.512,-0.226C0.524,-0.225 0.535,-0.215 0.544,-0.196C0.552,-0.177 0.558,-0.155 0.562,-0.13C0.565,-0.106 0.566,-0.082 0.564,-0.059C0.562,-0.036 0.556,-0.021 0.547,-0.013C0.542,-0.009 0.514,-0.005 0.461,-0.003C0.409,-0.001 0.351,-0 0.289,-0C0.226,-0 0.167,-0.001 0.112,-0.003C0.058,-0.005 0.025,-0.008 0.016,-0.013Z" style="fill-rule:nonzero;"/>
        </g>
        <g transform="matrix(300,0,0,300,1481.22,604.191)">
            <path d="M0.016,-0.013C0.005,-0.019 -0.001,-0.047 0,-0.096C0.001,-0.145 0.003,-0.175 0.005,-0.186C0.024,-0.262 0.057,-0.319 0.107,-0.358C0.156,-0.396 0.215,-0.428 0.282,-0.455C0.31,-0.466 0.322,-0.477 0.32,-0.489C0.318,-0.5 0.31,-0.509 0.296,-0.515C0.283,-0.521 0.268,-0.522 0.252,-0.518C0.236,-0.514 0.227,-0.503 0.227,-0.484C0.226,-0.477 0.223,-0.471 0.219,-0.465C0.21,-0.456 0.193,-0.451 0.169,-0.451C0.144,-0.451 0.121,-0.454 0.097,-0.459C0.081,-0.462 0.066,-0.466 0.052,-0.472C0.039,-0.477 0.026,-0.486 0.016,-0.499C0.003,-0.513 0.006,-0.539 0.024,-0.577C0.042,-0.615 0.059,-0.641 0.073,-0.657C0.12,-0.705 0.177,-0.734 0.244,-0.744C0.311,-0.753 0.374,-0.743 0.431,-0.712C0.486,-0.683 0.526,-0.635 0.553,-0.569C0.579,-0.503 0.576,-0.441 0.544,-0.384C0.516,-0.335 0.476,-0.302 0.424,-0.286C0.371,-0.27 0.332,-0.249 0.306,-0.222C0.347,-0.223 0.388,-0.224 0.43,-0.226C0.471,-0.228 0.498,-0.228 0.512,-0.226C0.524,-0.225 0.535,-0.215 0.544,-0.196C0.552,-0.177 0.558,-0.155 0.562,-0.13C0.565,-0.106 0.566,-0.082 0.564,-0.059C0.562,-0.036 0.556,-0.021 0.547,-0.013C0.542,-0.009 0.514,-0.005 0.461,-0.003C0.409,-0.001 0.351,-0 0.289,-0C0.226,-0 0.167,-0.001 0.112,-0.003C0.058,-0.005 0.025,-0.008 0.016,-0.013Z" style="fill-rule:nonzero;"/>
        </g>
        <rect x="1294.75" y="635.979" width="372.949" height="21.973"/>
    </g>
</svg>
